<svg width="999" height="280" viewBox="0 0 999 280" fill="none" xmlns="http://www.w3.org/2000/svg">
<path d="M87.4887 70V104.977H104.977V122.466H87.4887V209.926H70V70H87.4887ZM122.482 122.482V157.46H104.993V122.482H122.482ZM122.482 122.482V104.993H139.971V70H157.46V209.942H139.971V122.482H122.482Z" fill="#13222D"/>
<g clip-path="url(#clip0_367_301)">
<path d="M313.072 70.0557H208.122V87.5447H313.072V70.0557Z" fill="#00C5DB"/>
<path d="M330.561 87.5447H313.072V192.495H330.561V87.5447Z" fill="#00C5DB"/>
<path d="M190.633 192.495H208.122V210H313.072V192.495H208.122V87.5447H190.633V192.495Z" fill="#00C5DB"/>
<path d="M248.28 122.539H230.791V157.517H248.28V122.539Z" fill="#13222D"/>
<path d="M290.419 122.539H272.93V157.517H290.419V122.539Z" fill="#13222D"/>
</g>
<path d="M380.656 70V157.46H363.168V70H380.656ZM380.656 192.453V157.46H398.145V192.453H380.656ZM415.634 192.453V209.942H398.145V192.453H415.634ZM433.123 157.46V192.453H415.634V157.46H433.123ZM450.627 70V157.46H433.139V70H450.627Z" fill="#13222D"/>
<path d="M552.506 70V87.4887H500.024V139.971H552.506V174.964H535.018V157.476H500.024V209.958H482.535V70H552.506ZM569.995 87.4887V139.971H552.506V87.4887H569.995ZM569.995 174.964V209.958H552.506V174.964H569.995Z" fill="#13222D"/>
<path d="M654.369 174.964V209.958H636.88V174.964H654.369Z" fill="#13222D"/>
<path d="M738.759 104.993V139.987H791.242V104.993H808.73V209.958H791.242V157.476H738.759V209.958H721.271V104.993H738.759ZM756.248 87.4887V104.977H738.759V87.4887H756.248ZM773.737 70V87.4887H756.248V70H773.737ZM791.242 87.4887V104.977H773.753V87.4887H791.242Z" fill="#13222D"/>
<path d="M875.616 87.4887H840.622V70H928.082V87.4887H893.088V192.453H928.082V209.942H840.622V192.453H875.616V87.4887Z" fill="#13222D"/>
<defs>
<clipPath id="clip0_367_301">
<rect width="139.944" height="139.944" fill="white" transform="translate(190.633 70.0557)"/>
</clipPath>
</defs>
</svg>
